<?xml version="1.0" encoding="utf-8"?>
<!-- Generator: Adobe Illustrator 15.1.0, SVG Export Plug-In . SVG Version: 6.00 Build 0)  -->
<!DOCTYPE svg PUBLIC "-//W3C//DTD SVG 1.1//EN" "http://www.w3.org/Graphics/SVG/1.1/DTD/svg11.dtd">
<svg version="1.1" id="_x32_" xmlns="http://www.w3.org/2000/svg" xmlns:xlink="http://www.w3.org/1999/xlink" x="0px" y="0px"
	 width="512px" height="512px" viewBox="0 0 512 512" style="enable-background:new 0 0 512 512;" xml:space="preserve">
<style type="text/css">
<![CDATA[
	.st0{fill:#000000;}
]]>
</style>
<g>
	<path class="st0" d="M149.99,132.172c30.438,0.328,51.625,29.141,60.625,37.25c2.188,2.516,5.344,4.109,8.938,4.109
		c6.578,0,11.906-5.313,11.906-11.906c0-3.656-1.672-6.906-4.344-9.078l0.031-0.047c-6.859-6.578-28.281-35.344-76.719-35.344
		c-48.469,0-60.031,36.313-61.281,40.688l-0.141,0.656c0,1.844,1.5,3.344,3.359,3.344l3.141-2.5
		C99.256,151.938,110.146,131.781,149.99,132.172z"/>
	<path class="st0" d="M359.584,118.563c-48.484,0-69.859,28.75-76.734,35.344v0.031c-2.625,2.188-4.328,5.406-4.328,9.094
		c0,6.594,5.391,11.906,11.938,11.906c3.563,0,6.781-1.609,8.938-4.094c9.016-8.094,30.188-36.938,60.625-37.25
		c39.813-0.406,50.734,19.734,54.469,27.203l3.203,2.453c1.828,0,3.328-1.484,3.328-3.328l-0.172-0.641
		C419.662,154.875,408.053,118.563,359.584,118.563z"/>
	<path class="st0" d="M358.881,330.281l-49.734-2.844l-23.703-14.844c0,0-13.797,8.156-16.938,10.031h-12.5h-12.563
		c-3.109-1.875-16.891-10.031-16.891-10.031l-0.531,0.313c-0.375-0.344-0.594-0.781-1.016-1.094
		c-4.516-3.25-6.953-6.406-6.781-8.688c0.422-4.719,9.109-11.344,15.25-14.281l5.656-2.719v-68.953
		c0-12.609-8.344-25.344-24.188-36.766c-16.906-12.156-42.531-22.563-56.594-17.844c-5.203,1.734-7.969,7.281-6.266,12.5
		c1.672,5.219,7.344,8.094,12.531,6.469c4.375-1.313,23.078,3.641,39.281,15.563c9.563,7.047,15.281,14.531,15.281,20.078v56.797
		c-7.5,4.641-19.641,14.156-20.844,27.344c-0.531,5.859,1.016,14.219,10.047,22.656l-5.531,3.469l-49.766,2.844
		c0,0-49.844-39.828-55.484-47.969l33.813,80.203c0,0,88.984,1.234,92.641,0.859c16.891-13.781,31.953-29.469,31.953-29.469
		s15.016,15.688,31.938,29.469c3.641,0.375,92.625-0.859,92.625-0.859l33.797-80.203
		C408.756,290.453,358.881,330.281,358.881,330.281z"/>
	<path class="st0" d="M153.365,259.781c27.516,0,45.109-22.875,45.109-30.641s-17.594-30.578-45.109-30.578
		c-27.594,0-45.125,22.813-45.125,30.578S125.771,259.781,153.365,259.781z"/>
	<path class="st0" d="M351.037,259.781c27.563,0,45.109-22.875,45.109-30.641s-17.547-30.578-45.109-30.578
		c-27.578,0-45.141,22.813-45.141,30.578S323.459,259.781,351.037,259.781z"/>
	<path class="st0" d="M437.209,75.344C406.193,26.75,341.85,0,256.006,0S105.787,26.75,74.787,75.344
		C50.99,112.625,40.006,164.781,42.1,229.688C42.1,413.063,152.303,512,256.006,512c106.469,0,213.891-87.281,213.891-281.766
		C472.006,164.734,461.021,112.625,437.209,75.344z M443.896,228.609c0,176.859-92.172,257.047-184.594,258.891l45.094-69.828
		h-50.141h-50.125l44.906,69.578C160.068,482.766,68.1,392.578,68.084,228.063C66.115,167.078,75.74,119.5,96.662,86.688
		c25.313-39.625,83.375-62.406,159.344-62.406c75.906,0,133.984,22.781,159.313,62.422
		C436.256,119.5,445.865,167.031,443.896,228.609z"/>
</g>
</svg>
